<?xml version="1.0" standalone="no"?>
<!DOCTYPE svg PUBLIC "-//W3C//DTD SVG 20010904//EN"
 "http://www.w3.org/TR/2001/REC-SVG-20010904/DTD/svg10.dtd">
<svg version="1.0" xmlns="http://www.w3.org/2000/svg"
 width="500.000000pt" height="500.000000pt" viewBox="0 0 500.000000 500.000000"
 preserveAspectRatio="xMidYMid meet">

<g transform="translate(0.000000,500.000000) scale(0.100000,-0.100000)"
fill="#000000" stroke="none">
<path d="M1680 4361 c0 -7 11 -61 25 -120 41 -172 63 -269 85 -386 12 -60 39
-191 60 -290 59 -277 118 -565 125 -615 4 -25 34 -169 67 -320 34 -151 63
-289 65 -307 l5 -32 -388 -3 c-351 -3 -393 -5 -425 -21 -65 -32 -68 -45 -72
-392 -3 -170 -2 -325 0 -342 3 -19 22 -52 43 -75 l38 -43 149 -5 c106 -4 155
-9 166 -19 14 -11 17 -33 17 -112 l0 -98 56 0 c41 1 53 4 45 12 -6 6 -11 21
-11 34 0 18 6 23 25 23 14 0 25 -6 25 -13 0 -18 42 -57 61 -57 8 0 25 12 38
26 l24 25 24 -30 c22 -28 30 -31 81 -31 68 0 79 6 84 43 4 39 22 39 26 -1 3
-29 6 -32 38 -32 32 0 34 2 34 35 0 32 2 35 30 35 28 0 30 -3 30 -35 0 -35 0
-35 45 -35 l45 0 0 79 c0 76 1 79 25 85 14 4 30 4 35 1 6 -4 10 -42 10 -86 l0
-79 45 0 45 0 0 97 0 96 21 -19 c20 -18 21 -18 35 1 8 10 14 22 14 27 0 4 16
8 35 8 l35 0 0 -110 0 -110 124 0 c119 0 124 1 119 20 -3 11 -2 27 1 36 5 13
10 12 37 -10 45 -38 93 -36 120 6 17 28 19 43 15 101 -6 63 -5 67 15 67 15 0
20 -5 17 -22 -3 -24 16 -49 51 -68 35 -18 25 -110 -12 -110 -5 0 -7 16 -4 36
4 25 2 34 -6 31 -7 -2 -11 -11 -9 -20 1 -8 -3 -19 -9 -23 -8 -5 -10 -2 -5 7 4
8 0 5 -8 -5 -23 -28 -20 -35 12 -34 15 0 41 -3 59 -7 26 -6 36 -3 57 18 29 29
35 67 11 67 -8 0 -15 4 -15 9 0 16 78 91 94 91 8 0 16 10 18 22 3 23 4 23 194
23 l192 0 43 31 c89 65 99 102 99 374 l0 187 26 13 c33 18 64 79 64 126 0 20
-9 53 -21 74 -40 72 -30 70 -477 70 -221 0 -403 3 -405 8 -2 4 13 90 34 192
21 102 45 223 54 270 9 47 22 112 29 145 l13 60 39 -1 c46 -2 155 12 205 26
19 5 59 28 89 50 l54 40 -61 0 c-33 0 -74 3 -92 6 -32 7 -112 73 -134 110 -7
12 -20 32 -29 45 -16 23 -16 29 7 124 13 55 42 177 64 270 22 94 58 247 80
340 22 94 43 190 46 215 4 25 15 78 25 118 10 39 14 75 9 78 -5 3 -409 4 -899
2 -743 -3 -890 -5 -890 -17z m169 -75 c10 -12 8 -13 -8 -9 -12 3 -21 1 -21 -4
0 -6 30 -10 68 -11 l67 -1 -44 14 c-24 8 -47 17 -50 21 -3 3 65 4 153 2 87 -2
160 -7 163 -11 9 -14 -7 -21 -19 -9 -9 9 -15 8 -27 -2 -9 -8 -25 -17 -36 -20
-11 -3 0 -3 25 -1 32 3 39 1 25 -5 -11 -5 -46 -9 -79 -9 -51 -1 -57 1 -46 14
10 12 10 15 -3 15 -21 0 -38 -25 -31 -44 5 -13 21 -16 87 -15 52 1 83 -3 85
-10 2 -6 24 -11 48 -11 32 0 43 3 38 12 -5 8 -2 9 9 5 10 -3 17 -2 17 3 0 6 5
10 11 10 5 0 7 -5 3 -12 -5 -8 2 -9 25 -5 18 4 30 3 27 -2 -10 -15 85 -17 113
-3 17 9 45 12 81 8 110 -11 465 -3 550 12 34 6 59 6 66 1 6 -5 44 -7 83 -5
l71 5 -5 -77 -5 -77 15 65 c18 86 19 129 1 136 -14 6 -284 -10 -416 -24 -36
-4 -142 -7 -237 -7 -167 0 -172 1 -197 24 -16 15 -32 22 -46 18 -11 -3 -20 -1
-20 4 0 5 48 9 108 8 62 -1 97 -4 82 -8 -14 -4 -45 -6 -70 -5 -41 2 -43 1 -26
-12 13 -9 42 -14 85 -13 62 1 147 15 109 18 -10 0 -18 4 -18 9 0 4 160 8 355
10 327 3 355 2 355 -14 0 -36 -24 -155 -57 -289 -19 -77 -43 -176 -53 -220
-10 -44 -27 -116 -38 -160 -12 -44 -25 -98 -30 -120 l-10 -40 -1 39 c-1 21 -6
56 -13 78 -9 31 -9 41 0 47 15 9 8 104 -8 109 -6 2 -17 18 -24 36 -7 17 -21
40 -31 49 -12 13 -14 21 -6 31 8 9 2 21 -24 46 -27 26 -32 36 -23 47 6 8 17
12 25 9 8 -3 12 -2 9 3 -3 5 8 11 25 13 30 5 49 -6 27 -15 -7 -3 -2 -6 12 -6
15 -1 31 -11 40 -23 l14 -23 7 30 c6 27 7 26 9 -15 l3 -45 8 45 c8 49 11 263
2 243 -2 -7 -16 -13 -30 -13 -19 0 -24 4 -19 16 6 15 -1 16 -66 9 -102 -12
-953 -14 -1006 -2 -28 6 -47 5 -55 -2 -13 -10 -30 -9 -59 4 -21 8 -48 0 -48
-15 0 -5 3 -9 8 -9 19 3 65 -4 51 -8 -11 -3 -15 -11 -12 -24 3 -11 -2 -28 -12
-39 -12 -13 -14 -23 -8 -35 6 -9 13 -16 16 -16 21 3 27 -1 27 -14 0 -12 -5
-13 -17 -7 -10 5 -24 7 -30 5 -7 -3 -16 3 -19 12 -5 13 -8 12 -19 -7 -14 -29
-1 -182 20 -210 18 -26 27 -10 40 67 7 41 15 61 26 63 13 2 18 -9 22 -50 12
-95 7 -247 -9 -319 -9 -39 -13 -73 -9 -77 4 -4 10 -1 13 7 8 23 71 87 72 73 0
-7 -10 -32 -21 -55 -12 -23 -24 -69 -27 -106 -6 -79 14 -311 32 -368 8 -24 9
-43 4 -43 -26 0 20 -207 57 -256 21 -27 25 -49 34 -175 6 -79 15 -169 20 -198
6 -30 9 -57 6 -59 -12 -12 -24 16 -34 85 -7 43 -21 116 -31 163 -10 47 -25
114 -32 150 -15 80 -13 72 -21 90 -20 48 -38 173 -47 323 -8 121 -17 192 -32
241 -11 38 -22 85 -23 105 -1 20 -3 61 -5 91 l-2 55 -9 -62 c-8 -55 -6 -78 21
-182 20 -82 30 -144 30 -197 0 -43 -2 -75 -5 -72 -3 2 -16 63 -30 134 -30 150
-96 468 -132 634 -34 159 -42 203 -57 295 -7 44 -17 88 -21 98 -5 12 -3 17 9
17 9 0 16 5 16 10 0 6 -6 10 -12 10 -9 0 -8 4 2 10 21 14 36 12 49 -4z m401
-2 c0 -2 -12 -4 -27 -4 -21 0 -24 3 -14 9 13 8 41 5 41 -5z m130 2 c0 -8 -51
-13 -56 -5 -3 5 9 9 25 9 17 0 31 -2 31 -4z m270 -6 c0 -5 -4 -10 -9 -10 -6 0
-13 5 -16 10 -3 6 1 10 9 10 9 0 16 -4 16 -10z m-391 -14 c-10 -9 -79 -14 -74
-5 4 5 22 9 42 9 20 0 34 -2 32 -4z m81 -26 c11 -7 4 -10 -25 -9 -31 0 -36 2
-20 9 26 11 28 11 45 0z m-143 -36 c-3 -3 -12 -4 -19 -1 -8 3 -5 6 6 6 11 1
17 -2 13 -5z m-68 -85 c-16 -10 -23 -4 -14 10 3 6 11 8 17 5 6 -4 5 -9 -3 -15z
m301 -219 c0 -38 1 -40 31 -40 26 0 29 3 20 14 -9 11 -8 18 4 30 27 27 48 20
43 -14 -3 -19 0 -30 7 -30 7 0 10 11 7 28 -3 25 0 30 37 42 37 12 115 10 128
-4 3 -3 8 -29 11 -57 4 -48 3 -52 -14 -46 -16 5 -17 5 -3 -5 13 -9 14 -21 7
-71 -4 -33 -10 -62 -12 -64 -2 -2 -22 6 -45 17 -22 12 -59 24 -81 27 -31 4
-40 10 -36 20 4 8 9 32 12 53 6 35 5 38 -22 41 -16 2 -44 2 -61 -1 -26 -4 -31
-8 -23 -20 16 -25 11 -59 -10 -70 -12 -6 -40 -10 -63 -8 -37 3 -44 7 -59 40
-10 21 -19 52 -20 70 -3 30 0 33 62 60 36 15 68 28 73 28 4 0 7 -18 7 -40z
m467 -16 c42 -25 43 -27 42 -77 0 -29 -15 -115 -32 -192 l-32 -140 -81 0 c-77
0 -81 1 -74 20 5 11 16 70 25 130 10 72 23 119 36 137 23 33 24 38 4 38 -8 0
-15 5 -15 11 0 5 6 7 13 3 10 -6 10 -4 0 7 -7 7 -13 29 -13 49 0 35 1 36 42
37 28 2 54 -6 85 -23z m-643 -76 c32 -79 31 -85 -24 -112 -58 -29 -58 -28 -36
68 12 49 27 75 44 76 2 0 9 -15 16 -32z m826 -113 c37 -19 59 -93 37 -123 -6
-7 -7 -45 -3 -89 5 -62 4 -74 -6 -62 -7 8 -24 23 -37 34 l-24 20 12 -23 c13
-25 8 -54 -14 -72 -19 -15 -76 9 -98 43 -14 22 -14 27 -2 37 8 7 20 31 25 54
31 118 61 196 77 196 2 0 17 -7 33 -15z m-625 -5 c-4 -6 16 -10 53 -10 61 0
118 -14 138 -34 7 -6 10 -25 7 -43 -4 -27 -12 -35 -52 -50 -62 -24 -257 -24
-315 1 -51 21 -57 13 -12 -16 22 -14 34 -29 31 -37 -4 -11 -2 -11 9 -2 11 9
20 6 44 -14 l31 -26 -38 -39 c-21 -22 -44 -53 -50 -68 l-12 -29 -51 14 c-50
12 -83 11 -36 -2 63 -17 94 -39 120 -81 43 -70 122 -96 135 -43 3 8 0 7 -7 -3
-16 -26 -45 -22 -82 11 -25 22 -32 36 -32 65 0 46 17 58 68 52 49 -6 93 -47
107 -101 13 -48 6 -235 -11 -281 -10 -29 -14 -32 -48 -27 -30 3 -43 -1 -67
-22 -21 -18 -24 -24 -10 -19 30 12 98 10 102 -2 2 -6 -6 -23 -18 -39 -21 -26
-26 -27 -78 -22 -72 6 -180 58 -209 101 -23 34 -46 129 -57 240 -7 59 -5 68 7
64 13 -5 12 5 -3 69 -26 107 -18 153 38 215 23 27 43 53 43 58 0 4 13 11 29
15 28 6 57 47 46 65 -7 11 11 22 60 37 51 14 128 16 120 3z m210 -201 c8 -25
6 -27 -34 -39 -38 -11 -43 8 -9 40 27 25 35 25 43 -1z m116 -161 c22 -6 39
-17 39 -25 0 -7 5 -13 11 -13 5 0 7 5 3 11 -5 9 1 10 21 5 44 -11 116 -48 122
-62 2 -7 23 -16 45 -19 32 -6 44 -3 61 13 12 11 33 22 47 24 21 2 30 -5 52
-44 15 -26 25 -54 22 -62 -15 -39 71 -132 113 -121 13 3 23 1 23 -5 0 -18
-122 -17 -177 1 -18 6 -48 29 -67 51 -43 50 -72 49 -68 -2 7 -88 3 -152 -12
-176 -21 -31 -34 -30 -48 4 -34 85 -103 220 -123 242 -12 14 -24 30 -26 37 -6
17 -108 91 -161 116 -26 12 -47 25 -48 30 0 11 129 8 171 -5z m-38 -295 c24
-43 47 -92 51 -108 6 -28 3 -33 -33 -53 l-39 -22 -5 22 c-3 13 -9 62 -13 111
-4 48 -10 87 -15 87 -5 0 -7 -6 -4 -12 2 -7 6 -58 9 -113 l7 -100 -46 -27 -45
-28 -20 33 c-20 33 -25 58 -14 70 4 4 14 28 23 54 15 43 85 163 95 163 3 0 24
-35 49 -77z m363 -148 c4 -8 3 -26 0 -40 -5 -20 -13 -25 -36 -25 -25 0 -30 4
-30 24 0 14 10 32 22 40 28 20 37 20 44 1z m-268 -97 c51 -147 69 -332 43
-445 l-15 -62 -79 -26 c-115 -38 -146 -27 -185 64 -18 44 -18 45 5 108 20 57
22 75 18 196 -4 128 -4 133 18 147 32 22 150 79 163 80 6 0 20 -28 32 -62z
m-264 2 l36 -40 -1 -142 c0 -103 -5 -152 -16 -180 -8 -21 -19 -38 -23 -38 -17
0 -90 104 -101 142 -6 26 -7 60 -1 98 5 33 5 57 0 54 -4 -3 -11 -23 -14 -46
-10 -60 -28 -21 -22 48 4 47 10 59 49 98 24 25 47 45 50 46 4 0 23 -18 43 -40z
m451 -47 c-35 -347 -34 -345 -73 -186 l-32 131 53 56 c28 31 53 56 55 56 2 0
1 -26 -3 -57z m-735 -107 c7 -9 22 -16 34 -16 37 0 49 -15 43 -51 -21 -137
-61 -289 -76 -289 -12 0 -21 37 -21 90 0 29 -7 54 -20 70 -15 19 -20 41 -20
96 0 39 3 85 6 102 5 26 9 30 24 22 9 -5 22 -16 30 -24z m-750 -561 l0 -45
-90 0 -90 0 0 -70 0 -70 90 0 90 0 0 -45 0 -44 -87 -3 -88 -3 -3 -128 -3 -128
-42 3 -42 3 -2 250 c-1 138 0 260 2 272 9 39 50 52 163 53 l102 0 0 -45z m148
-247 l2 -288 -45 0 -45 0 0 153 c0 85 -3 216 -7 291 l-6 137 49 -3 49 -3 3
-287z m362 247 c0 -43 -1 -44 -37 -50 -71 -11 -79 -14 -119 -44 -48 -34 -74
-84 -74 -139 0 -68 77 -150 168 -177 21 -6 22 -4 22 65 l0 72 -29 -7 c-58 -13
-47 57 15 94 44 26 57 23 84 -21 18 -29 20 -51 20 -180 l0 -148 -45 0 c-33 0
-45 4 -45 15 0 9 -9 15 -22 15 -31 1 -95 31 -149 69 -75 55 -117 166 -99 261
23 123 136 214 273 219 l37 1 0 -45z m388 27 c13 -13 18 -29 14 -50 -6 -45
-23 -55 -58 -37 -16 8 -48 15 -71 15 l-43 0 0 -245 0 -245 -45 0 -45 0 0 245
0 245 -50 0 c-50 0 -50 0 -50 33 0 54 9 57 177 57 136 0 155 -2 171 -18z m500
-28 l3 -42 -58 -7 c-133 -16 -218 -107 -199 -210 8 -43 79 -120 129 -140 l37
-15 0 64 c0 56 -3 66 -20 71 -14 4 -20 15 -20 34 0 45 21 64 73 65 25 1 48 -2
51 -5 3 -3 7 -82 9 -175 l2 -169 -40 -3 c-24 -2 -43 2 -50 10 -5 7 -27 19 -48
26 -145 51 -231 181 -211 316 9 53 17 69 67 123 64 70 137 103 222 100 l50 -2
3 -41z m152 -69 l0 -115 70 0 70 0 0 115 0 115 35 0 35 0 0 -290 0 -290 -35 0
-35 0 0 125 0 125 -70 0 -70 0 0 -125 0 -125 -40 0 -40 0 0 130 c0 109 -2 130
-15 130 -11 0 -15 11 -15 39 0 25 5 41 15 45 12 4 15 27 15 114 0 60 3 112 7
115 3 4 21 7 40 7 l33 0 0 -115z m331 80 c4 -16 7 -24 8 -17 0 6 8 12 16 12 8
0 15 9 15 20 0 19 7 20 150 20 112 0 151 -3 154 -12 2 -7 8 -28 14 -45 l10
-33 -59 0 -59 0 -2 -242 -3 -243 -26 -3 c-15 -2 -34 4 -44 14 -15 16 -17 31
-11 131 4 62 4 165 0 228 l-7 115 -53 0 -54 0 0 -62 c0 -45 -3 -59 -10 -48 -7
11 -10 6 -10 -22 0 -20 5 -40 10 -43 6 -4 10 -67 10 -156 l0 -149 -44 0 c-24
0 -51 -3 -60 -6 -14 -6 -16 24 -16 286 l0 291 32 -3 c27 -2 34 -8 39 -33z
m-1344 -27 c-3 -7 -5 -2 -5 12 0 14 2 19 5 13 2 -7 2 -19 0 -25z m811 -700 c3
-30 -3 -42 -33 -72 -53 -54 -71 -46 -39 17 9 18 22 35 28 39 6 4 -17 8 -51 8
-49 0 -63 3 -63 15 0 12 13 15 60 15 36 0 60 4 60 11 0 6 8 9 18 7 12 -2 18
-14 20 -40z m-1115 25 c-7 -2 -21 -2 -30 0 -10 3 -4 5 12 5 17 0 24 -2 18 -5z
m247 -65 l0 -72 -22 22 c-20 19 -21 25 -10 55 7 18 12 41 12 50 0 9 5 17 10
17 6 0 10 -31 10 -72z m80 52 c0 -11 -7 -20 -15 -20 -8 0 -15 9 -15 20 0 11 7
20 15 20 8 0 15 -9 15 -20z m121 3 c1 -17 2 -17 6 0 7 25 20 21 27 -8 9 -35 1
-45 -35 -45 -27 0 -29 3 -29 35 0 24 5 35 15 35 8 0 16 -8 16 -17z m156 1 c-3
-3 -12 -4 -19 -1 -8 3 -5 6 6 6 11 1 17 -2 13 -5z m758 -52 c-8 -9 -25 20 -18
31 3 5 10 2 15 -7 6 -10 7 -20 3 -24z m115 29 c0 -5 -7 -11 -15 -15 -9 -3 -15
0 -15 9 0 8 7 15 15 15 8 0 15 -4 15 -9z"/>
<path d="M2040 4266 c0 -9 7 -16 16 -16 9 0 14 5 12 12 -6 18 -28 21 -28 4z"/>
<path d="M1810 4221 c0 -10 7 -38 15 -61 8 -23 13 -45 11 -49 -2 -3 7 -47 20
-96 14 -50 33 -133 44 -185 11 -52 26 -120 34 -150 l15 -55 -5 53 c-3 29 -16
103 -30 165 -14 62 -29 162 -33 223 -5 60 -13 119 -19 130 -10 19 -8 20 55 17
58 -3 64 -2 53 12 -9 11 -32 15 -86 15 -66 0 -74 -2 -74 -19z m60 -112 c0 -5
-4 -9 -10 -9 -5 0 -10 7 -10 16 0 8 5 12 10 9 6 -3 10 -10 10 -16z"/>
<path d="M2018 4193 c6 -2 18 -2 25 0 6 3 1 5 -13 5 -14 0 -19 -2 -12 -5z"/>
<path d="M1937 4114 c-4 -4 -7 -14 -7 -23 0 -11 3 -12 11 -4 6 6 10 16 7 23
-2 6 -7 8 -11 4z"/>
<path d="M3281 4044 c0 -11 3 -14 6 -6 3 7 2 16 -1 19 -3 4 -6 -2 -5 -13z"/>
<path d="M3210 3835 c0 -8 5 -15 10 -15 6 0 10 7 10 15 0 8 -4 15 -10 15 -5 0
-10 -7 -10 -15z"/>
<path d="M1971 3614 c0 -11 3 -14 6 -6 3 7 2 16 -1 19 -3 4 -6 -2 -5 -13z"/>
<path d="M1952 3595 c0 -16 2 -22 5 -12 2 9 2 23 0 30 -3 6 -5 -1 -5 -18z"/>
<path d="M3171 3584 c0 -11 3 -14 6 -6 3 7 2 16 -1 19 -3 4 -6 -2 -5 -13z"/>
<path d="M1961 3544 c0 -11 3 -14 6 -6 3 7 2 16 -1 19 -3 4 -6 -2 -5 -13z"/>
<path d="M2165 3390 c-28 -29 -28 -30 -7 -30 15 0 22 6 22 18 0 10 5 23 12 30
7 7 10 12 7 12 -3 0 -18 -13 -34 -30z"/>
<path d="M2399 3253 c-13 -15 -12 -15 9 -4 23 12 28 21 13 21 -5 0 -15 -7 -22
-17z"/>
<path d="M2631 2424 c0 -11 3 -14 6 -6 3 7 2 16 -1 19 -3 4 -6 -2 -5 -13z"/>
<path d="M1615 1870 c-8 -13 3 -50 15 -50 9 0 20 25 20 46 0 16 -26 19 -35 4z
m21 -27 c-10 -10 -19 5 -10 18 6 11 8 11 12 0 2 -7 1 -15 -2 -18z"/>
<path d="M3441 1954 c0 -11 3 -14 6 -6 3 7 2 16 -1 19 -3 4 -6 -2 -5 -13z"/>
<path d="M3401 1898 c0 -18 3 -27 6 -20 2 6 11 12 19 12 17 0 18 12 2 28 -20
20 -28 14 -27 -20z"/>
</g>
</svg>
